<?xml version="1.0" encoding="UTF-8" standalone="no"?>
<!-- Created with Inkscape (http://www.inkscape.org/) -->

<svg
   xmlns:dc="http://purl.org/dc/elements/1.1/"
   xmlns:cc="http://creativecommons.org/ns#"
   xmlns:rdf="http://www.w3.org/1999/02/22-rdf-syntax-ns#"
   xmlns:svg="http://www.w3.org/2000/svg"
   xmlns="http://www.w3.org/2000/svg"
   xmlns:sodipodi="http://sodipodi.sourceforge.net/DTD/sodipodi-0.dtd"
   xmlns:inkscape="http://www.inkscape.org/namespaces/inkscape"
   width="300"
   height="150"
   id="svg2"
   version="1.1"
   inkscape:version="0.48.4 r9939"
   sodipodi:docname="New document 1">
  <defs
     id="defs4" />
  <sodipodi:namedview
     id="base"
     pagecolor="#ffffff"
     bordercolor="#666666"
     borderopacity="1.0"
     inkscape:pageopacity="0.0"
     inkscape:pageshadow="2"
     inkscape:zoom="2"
     inkscape:cx="224.602"
     inkscape:cy="92.136596"
     inkscape:document-units="px"
     inkscape:current-layer="layer1"
     showgrid="false"
     inkscape:window-width="1920"
     inkscape:window-height="1000"
     inkscape:window-x="1920"
     inkscape:window-y="29"
     inkscape:window-maximized="1" />
  <metadata
     id="metadata7">
    <rdf:RDF>
      <cc:Work
         rdf:about="">
        <dc:format>image/svg+xml</dc:format>
        <dc:type
           rdf:resource="http://purl.org/dc/dcmitype/StillImage" />
        <dc:title></dc:title>
      </cc:Work>
    </rdf:RDF>
  </metadata>
  <g
     inkscape:label="Layer 1"
     inkscape:groupmode="layer"
     id="layer1"
     transform="translate(0,-902.36218)">
    <g
       id="g4002"
       transform="matrix(0.2070701,0,0,0.2070701,160.74966,885.25003)">
      <path
         d="m -82.879552,453.13139 c 30.53376,4e-5 58.985806,-16.65482 85.3562244,-49.96462 l 0,-156.13944 c -2.29e-4,-6.5923 2.2551161,-12.14392 6.7660421,-16.65487 4.8574305,-4.51043 10.5825375,-6.76577 17.1753375,-6.76604 6.592295,2.7e-4 12.143914,2.25561 16.654873,6.76604 4.510421,4.51095 6.765766,10.06257 6.766043,16.65487 l 0,223.2794 c -2.77e-4,6.93954 -2.255622,12.66465 -6.766043,17.17533 -4.510959,4.5107 -10.062578,6.76604 -16.654873,6.76605 -6.5928,-10e-6 -12.317907,-2.25535 -17.1753375,-6.76605 -4.510926,-4.51068 -6.7662711,-10.23579 -6.7660421,-17.17533 l 0,-21.33906 c -13.8792764,14.57304 -25.8499544,24.80884 -35.9120704,30.70742 -19.777835,11.45023 -38.688036,17.17534 -56.730661,17.17534 -17.695921,0 -32.268921,-2.60233 -43.719041,-7.80697 -11.45031,-5.55162 -21.16564,-13.01161 -29.14603,-22.37999 -16.30794,-19.08366 -24.46188,-43.02502 -24.46184,-71.82414 l 0,-147.812 c -4e-5,-6.5923 2.2553,-12.14392 6.76604,-16.65487 4.85762,-4.51043 10.58273,-6.76577 17.17534,-6.76604 6.59248,2.7e-4 12.1441,2.25561 16.65487,6.76604 4.51061,4.51095 6.76596,10.06257 6.76604,16.65487 l 0,142.60736 c -8e-5,19.77774 4.33712,35.39167 13.01162,46.84183 9.02128,11.10329 23.76777,16.65491 44.239508,16.65487"
         style="font-size:520.46478271px;font-style:normal;font-variant:normal;font-weight:normal;font-stretch:normal;line-height:125%;letter-spacing:0px;word-spacing:0px;fill:#1a1a1a;fill-opacity:1;stroke:none;font-family:Varela Round;-inkscape-font-specification:Varela Round"
         id="path3961"
         inkscape:connector-curvature="0" />
      <path
         d="m 141.63592,239.74083 c 29.14595,-12.49089 59.33287,-18.73646 90.56087,-18.73673 35.39143,2.7e-4 62.80255,10.75653 82.23344,32.26881 17.34858,18.73695 26.02299,42.15785 26.02324,70.26275 l 0,147.29153 c -2.5e-4,6.59257 -2.42909,12.14419 -7.28651,16.65487 -4.51093,4.5107 -10.06255,6.76604 -16.65487,6.76605 -6.59278,-10e-6 -12.1444,-2.25535 -16.65488,-6.76605 -4.5109,-4.51068 -6.76624,-10.0623 -6.76604,-16.65487 l 0,-13.53208 c -9.36856,9.71536 -22.03319,18.73674 -37.99393,27.06417 -15.61409,8.32743 -35.56522,12.49115 -59.85345,12.49115 -23.94146,0 -43.89259,-6.93953 -59.85345,-20.81859 -16.6549,-14.57298 -24.98233,-33.65667 -24.98231,-57.25113 -2e-5,-25.67616 9.71532,-45.80078 29.14603,-60.37391 21.1655,-15.96077 51.35243,-23.94122 90.56087,-23.94138 l 62.97624,0 0,-4.16372 c -2e-4,-23.24724 -5.72531,-39.72861 -17.17534,-49.44415 -11.4504,-10.0621 -28.97269,-15.09326 -52.56694,-15.09348 -20.12475,2.2e-4 -43.19867,4.16394 -69.22182,12.49115 -2.77587,0.69417 -5.89865,1.04114 -9.36836,1.04093 -3.46982,2.1e-4 -7.11307,-1.73467 -10.92976,-5.20465 -3.81678,-3.81652 -5.72515,-9.54162 -5.72511,-17.17533 -4e-5,-7.63325 4.51065,-13.35835 13.53208,-17.17534 m 16.13441,173.83524 c -7e-5,27.75817 18.38967,41.63721 55.16927,41.63718 16.30775,3e-5 31.40122,-3.99019 45.28043,-11.97069 14.22586,-7.98041 25.84956,-17.00179 34.87114,-27.06417 l 0,-43.71904 -56.73066,0 c -24.63545,1.2e-4 -43.89263,3.1229 -57.77159,9.36836 -13.87914,6.24568 -20.81866,16.82846 -20.81859,31.74836"
         style="font-size:520.46478271px;font-style:normal;font-variant:normal;font-weight:normal;font-stretch:normal;line-height:125%;letter-spacing:0px;word-spacing:0px;fill:#1a1a1a;fill-opacity:1;stroke:none;font-family:Varela Round;-inkscape-font-specification:Varela Round"
         id="path3963"
         inkscape:connector-curvature="0" />
      <path
         d="m 422.52426,247.5478 c -4e-5,-6.93928 2.2553,-12.66439 6.76604,-17.17534 4.51064,-4.51043 10.06226,-6.76577 16.65488,-6.76604 6.93945,2.7e-4 12.66456,2.25561 17.17533,6.76604 4.51061,4.51095 6.76596,10.23606 6.76605,17.17534 l 0,223.27939 c -9e-5,6.59257 -2.25544,12.14419 -6.76605,16.65487 -4.51077,4.5107 -10.23588,6.76604 -17.17533,6.76605 -6.59262,-10e-6 -12.14424,-2.25535 -16.65488,-6.76605 -4.51074,-4.51068 -6.76608,-10.0623 -6.76604,-16.65487 l 0,-223.27939 m 52.04648,-102.0111 c -10e-5,7.28685 -2.60242,13.53242 -7.80697,18.73673 -5.20473,5.20497 -11.4503,7.8073 -18.73674,7.80698 l -3.12278,0 c -7.28657,3.2e-4 -13.53214,-2.60201 -18.73674,-7.80698 -5.20469,-5.20431 -7.80701,-11.44988 -7.80697,-18.73673 l 0,-2.08186 c -4e-5,-7.28615 2.60228,-13.53172 7.80697,-18.73673 5.2046,-5.20428 11.45017,-7.8066 18.73674,-7.80697 l 3.12278,0 c 7.28644,3.7e-4 13.53201,2.60269 18.73674,7.80697 5.20455,5.20501 7.80687,11.45058 7.80697,18.73673 l 0,2.08186"
         style="font-size:520.46478271px;font-style:normal;font-variant:normal;font-weight:normal;font-stretch:normal;line-height:125%;letter-spacing:0px;word-spacing:0px;fill:#1a1a1a;fill-opacity:1;stroke:none;font-family:Varela Round;-inkscape-font-specification:Varela Round"
         id="path3965"
         inkscape:connector-curvature="0" />
      <path
         d="m 558.78849,133.04555 c -4e-5,-6.93917 2.2553,-12.66427 6.76604,-17.17534 4.51064,-4.51032 10.06226,-6.76566 16.65488,-6.76604 6.93945,3.8e-4 12.66456,2.25572 17.17534,6.76604 4.5106,4.51107 6.76595,10.23617 6.76604,17.17534 l 0,337.78164 c -9e-5,6.59257 -2.25544,12.14419 -6.76604,16.65487 -4.51078,4.5107 -10.23589,6.76604 -17.17534,6.76605 -6.59262,-10e-6 -12.14424,-2.25535 -16.65488,-6.76605 -4.51074,-4.51068 -6.76608,-10.0623 -6.76604,-16.65487 l 0,-337.78164"
         style="font-size:520.46478271px;font-style:normal;font-variant:normal;font-weight:normal;font-stretch:normal;line-height:125%;letter-spacing:0px;word-spacing:0px;fill:#1a1a1a;fill-opacity:1;stroke:none;font-family:Varela Round;-inkscape-font-specification:Varela Round"
         id="path3967"
         inkscape:connector-curvature="0" />
      <g
         id="g3989">
        <g
           id="g3939">
          <path
             inkscape:connector-curvature="0"
             id="rect3921"
             d="m -610.66187,323.4408 22.94724,-85.7569 -182.95615,-3.07406 160.00897,88.83097 z"
             style="fill:#ff8e43;fill-opacity:1;stroke:none" />
          <path
             style="fill:#ffa061;fill-opacity:1;stroke:none"
             d="m -612.28396,302.96402 17.51079,-65.44019 -139.6119,-2.34578 122.10116,67.78597 z"
             id="path3932"
             inkscape:connector-curvature="0" />
        </g>
        <path
           inkscape:connector-curvature="0"
           id="path3127"
           style="font-size:520.46478271px;font-style:normal;font-variant:normal;font-weight:normal;font-stretch:normal;line-height:125%;letter-spacing:0px;word-spacing:0px;fill:#1a1a1a;fill-opacity:1;stroke:none;font-family:Varela Round;-inkscape-font-specification:Varela Round"
           d="m -402.80277,494.18282 c -9.71557,1.3879 -20.12486,2.08185 -31.22788,2.08186 -55.16943,-10e-6 -99.2354,-17.52231 -132.19806,-52.56695 -32.96281,-34.69757 -49.79116,-79.45749 -50.48508,-134.27991 0.69392,-54.82206 17.52227,-99.58198 50.48508,-134.27992 32.96266,-35.04427 77.02863,-52.56657 132.19806,-52.56694 54.82202,3.7e-4 98.88799,17.52267 132.19805,52.56694 32.26844,34.35096 49.09679,79.11089 50.48509,134.27992 -0.69435,40.94337 -10.40968,76.50843 -29.14603,106.69528 -18.73708,30.187 -44.93378,52.21999 -78.59018,66.09903 l 45.8009,50.48508 c 4.16338,4.16367 6.24523,9.19483 6.24557,15.09348 -3.4e-4,6.24551 -2.25568,11.45016 -6.76604,15.61394 -4.16404,4.51062 -9.54218,6.76597 -16.13441,6.76605 -6.24588,-8e-5 -11.62401,-2.77589 -16.13441,-8.32744 l -56.73066,-67.66042 m -31.22788,-42.15765 c 42.33088,4e-5 75.64059,-13.70552 99.92923,-41.11672 23.59407,-26.37011 35.39126,-60.20028 35.39161,-101.49063 -3.5e-4,-41.28998 -11.79754,-75.12016 -35.39161,-101.49063 -24.28864,-27.41084 -57.59835,-41.1164 -99.92923,-41.11672 -42.33131,3.2e-4 -75.64102,13.70588 -99.92924,41.11672 -23.59449,26.37047 -35.39168,60.20065 -35.39161,101.49063 -7e-5,41.29035 11.79712,75.12052 35.39161,101.49063 24.28822,27.4112 57.59793,41.11676 99.92924,41.11672" />
        <g
           id="g3985">
          <path
             inkscape:connector-curvature="0"
             id="path3910"
             d="m -434.03125,166.8125 c -42.33131,3.2e-4 -75.64928,13.71416 -99.9375,41.125 -23.59449,26.37047 -35.37507,60.17877 -35.375,101.46875 -7e-5,41.29035 11.78051,75.12989 35.375,101.5 24.28822,27.4112 57.60619,41.12504 99.9375,41.125 42.33088,4e-5 75.64886,-13.7138 99.9375,-41.125 23.59407,-26.37011 35.37465,-60.20965 35.375,-101.5 -3.5e-4,-41.28998 -11.78093,-75.09828 -35.375,-101.46875 -24.28864,-27.41084 -57.60662,-41.12468 -99.9375,-41.125 z"
             style="fill:#1abc9c;fill-opacity:1;stroke:none" />
          <path
             id="path3934"
             d="m -360.875,185.40625 c 14.77582,23.32819 22.15597,51.32001 22.15625,84 -3.5e-4,41.29035 -11.78093,75.12989 -35.375,101.5 -24.28864,27.4112 -57.60662,41.12504 -99.9375,41.125 -28.46054,3e-5 -52.84922,-6.20075 -73.15625,-18.59375 3.89294,6.14823 8.29871,11.96993 13.21875,17.46875 24.28822,27.4112 57.60619,41.12504 99.9375,41.125 42.33088,4e-5 75.64886,-13.7138 99.9375,-41.125 23.59407,-26.37011 35.37465,-60.20965 35.375,-101.5 -3.5e-4,-41.28998 -11.78093,-75.09828 -35.375,-101.46875 -7.9587,-8.98176 -16.88419,-16.49133 -26.78125,-22.53125 z"
             style="fill:#18b193;fill-opacity:1;stroke:none"
             inkscape:connector-curvature="0" />
        </g>
        <g
           id="g3980">
          <path
             inkscape:connector-curvature="0"
             id="path3978"
             d="m -480.01368,206.06466 c -8.73465,6e-5 -15.60945,2.82977 -20.62107,8.48571 -4.86848,5.44128 -7.29928,12.41727 -7.29927,20.93702 -1e-5,8.51984 2.43079,15.50227 7.29927,20.94347 5.01162,5.65602 11.88642,8.48573 20.62107,8.48572 8.73453,10e-6 15.60933,-2.8297 20.62106,-8.48572 4.86837,-5.4412 7.29917,-12.42363 7.29925,-20.94347 -8e-5,-8.51975 -2.43088,-15.49574 -7.29925,-20.93702 -5.01173,-5.65594 -11.88653,-8.48565 -20.62106,-8.48571 z"
             style="fill:#1bc2a1;fill-opacity:1;stroke:none" />
          <path
             style="fill:#f9f9f9;fill-opacity:1;stroke:none"
             d="m -481.21986,209.06986 c -7.52776,5e-5 -13.45265,2.43877 -17.7718,7.31322 -4.19579,4.68944 -6.29072,10.70154 -6.29071,18.04409 -10e-6,7.34263 2.09492,13.36028 6.29071,18.04966 4.31915,4.87451 10.24404,7.31323 17.7718,7.31322 7.52766,10e-6 13.45255,-2.43871 17.77179,-7.31322 4.1957,-4.68938 6.29063,-10.70703 6.2907,-18.04966 -7e-5,-7.34255 -2.095,-13.35465 -6.2907,-18.04409 -4.31924,-4.87445 -10.24413,-7.31317 -17.77179,-7.31322 z"
             id="path3974"
             inkscape:connector-curvature="0" />
          <path
             inkscape:connector-curvature="0"
             id="path3976"
             d="m -484.20458,228.87081 c -2.70419,2e-5 -4.83258,0.87608 -6.38415,2.62713 -1.50725,1.68458 -2.25982,3.8443 -2.25981,6.48197 -10e-6,2.63768 0.75256,4.7994 2.25981,6.48396 1.55157,1.75107 3.67996,2.62714 6.38415,2.62713 2.70416,1e-5 4.83256,-0.87606 6.38416,-2.62713 1.50722,-1.68456 2.25977,-3.84628 2.2598,-6.48396 -3e-5,-2.63767 -0.75258,-4.79739 -2.2598,-6.48197 -1.5516,-1.75105 -3.68,-2.62711 -6.38416,-2.62713 z"
             style="fill:#1a1a1a;fill-opacity:1;stroke:none" />
        </g>
      </g>
    </g>
    <text
       xml:space="preserve"
       style="font-size:11.72714329px;font-style:normal;font-variant:normal;font-weight:normal;font-stretch:normal;line-height:125%;letter-spacing:0px;word-spacing:0px;fill:#1a1a1a;fill-opacity:1;stroke:none;font-family:Varela Round;-inkscape-font-specification:Varela Round"
       x="202.29979"
       y="1001.4246"
       id="text4020"
       sodipodi:linespacing="125%"><tspan
         sodipodi:role="line"
         id="tspan4022"
         x="202.29979"
         y="1001.4246">rgaus.net/quail</tspan></text>
    <text
       sodipodi:linespacing="125%"
       id="text4024"
       y="997.66113"
       x="345.42953"
       style="font-size:64.42984772px;font-style:normal;font-variant:normal;font-weight:normal;font-stretch:normal;line-height:125%;letter-spacing:0px;word-spacing:0px;fill:#1a1a1a;fill-opacity:1;stroke:none;font-family:Varela Round;-inkscape-font-specification:Varela Round"
       xml:space="preserve"><tspan
         y="997.66113"
         x="345.42953"
         id="tspan4026"
         sodipodi:role="line">Wiki</tspan></text>
  </g>
</svg>
